# xmcd
#
# Track frame offsets:
#       150
#       12170
#       25985
#       39031
#       50601
#       66506
#       79339
#       94723
#       105499
#       116614
#       127081
#       143544
#       158763
#       176815
#
# Disc length: 2511 seconds
#
# Revision: 0
# Processed by: cddbd v1.5.1PL0 Copyright (c) Steve Scherf et al.
# Submitted via: CD-DA_X-Tractor v0.24
#
DISCID=b509cd0e
DTITLE=Strasliva podivana - Krajina meho srdce
DYEAR=1900
DGENRE=
TTITLE0=Krajina meho srdce
TTITLE1=Vecirek
TTITLE2=Theatrum mundi
TTITLE3=Lovecka vasen
TTITLE4=Havran
TTITLE5=O Slunecniku, Mesicniku a Vetrniku
TTITLE6=Ja, truchlivy buh
TTITLE7=Nevestka
TTITLE8=Krvacejici laska
TTITLE9=Budha
TTITLE10=Kovar z Wooton Major
TTITLE11=Jmeno ruze
TTITLE12=Cikanka
TTITLE13=O ptaku Ohnivaku a lisce Rysce
EXTD=
EXTT0=
EXTT1=
EXTT2=
EXTT3=
EXTT4=
EXTT5=
EXTT6=
EXTT7=
EXTT8=
EXTT9=
EXTT10=
EXTT11=
EXTT12=
EXTT13=
PLAYORDER=
